<mxfile host="drawio-plugin" modified="2024-03-06T17:19:45.420Z" agent="5.0 (Windows NT 10.0; Win64; x64) AppleWebKit/537.36 (KHTML, like Gecko) Chrome/111.0.0.0 Safari/537.36" etag="KCsuAmoXtKEmTjRWC0pE" version="20.5.3" type="embed"><diagram id="C5RBs43oDa-KdzZeNtuy" name="Page-1"><mxGraphModel dx="1235" dy="1703" grid="1" gridSize="10" guides="1" tooltips="1" connect="1" arrows="1" fold="1" page="1" pageScale="1" pageWidth="827" pageHeight="1169" math="0" shadow="0"><root><mxCell id="WIyWlLk6GJQsqaUBKTNV-0"/><mxCell id="WIyWlLk6GJQsqaUBKTNV-1" parent="WIyWlLk6GJQsqaUBKTNV-0"/><mxCell id="zkfFHV4jXpPFQw0GAbJ--0" value="&lt;&lt;aggregate&gt;&gt;&#10;Creator" style="swimlane;fontStyle=2;align=center;verticalAlign=top;childLayout=stackLayout;horizontal=1;startSize=40;horizontalStack=0;resizeParent=1;resizeLast=0;collapsible=1;marginBottom=0;rounded=0;shadow=0;strokeWidth=1;fillColor=#d5e8d4;strokeColor=#82b366;" parent="WIyWlLk6GJQsqaUBKTNV-1" vertex="1"><mxGeometry x="80" y="-48" width="370" height="306" as="geometry"><mxRectangle x="230" y="140" width="160" height="26" as="alternateBounds"/></mxGeometry></mxCell><mxCell id="nIXqTLBLyyWKumG9TFtc-40" value="- id: int" style="text;strokeColor=none;fillColor=none;align=left;verticalAlign=top;spacingLeft=4;spacingRight=4;overflow=hidden;rotatable=0;points=[[0,0.5],[1,0.5]];portConstraint=eastwest;whiteSpace=wrap;html=1;" parent="zkfFHV4jXpPFQw0GAbJ--0" vertex="1"><mxGeometry y="40" width="370" height="26" as="geometry"/></mxCell><mxCell id="nIXqTLBLyyWKumG9TFtc-41" value="- username: string" style="text;strokeColor=none;fillColor=none;align=left;verticalAlign=top;spacingLeft=4;spacingRight=4;overflow=hidden;rotatable=0;points=[[0,0.5],[1,0.5]];portConstraint=eastwest;whiteSpace=wrap;html=1;" parent="zkfFHV4jXpPFQw0GAbJ--0" vertex="1"><mxGeometry y="66" width="370" height="26" as="geometry"/></mxCell><mxCell id="nIXqTLBLyyWKumG9TFtc-42" value="- password: string" style="text;strokeColor=none;fillColor=none;align=left;verticalAlign=top;spacingLeft=4;spacingRight=4;overflow=hidden;rotatable=0;points=[[0,0.5],[1,0.5]];portConstraint=eastwest;whiteSpace=wrap;html=1;" parent="zkfFHV4jXpPFQw0GAbJ--0" vertex="1"><mxGeometry y="92" width="370" height="26" as="geometry"/></mxCell><mxCell id="zkfFHV4jXpPFQw0GAbJ--4" value="" style="line;html=1;strokeWidth=1;align=left;verticalAlign=middle;spacingTop=-1;spacingLeft=3;spacingRight=3;rotatable=0;labelPosition=right;points=[];portConstraint=eastwest;" parent="zkfFHV4jXpPFQw0GAbJ--0" vertex="1"><mxGeometry y="118" width="370" height="8" as="geometry"/></mxCell><mxCell id="4" value="+ Creator()" style="text;strokeColor=none;fillColor=none;align=left;verticalAlign=middle;spacingLeft=4;spacingRight=4;overflow=hidden;points=[[0,0.5],[1,0.5]];portConstraint=eastwest;rotatable=0;whiteSpace=wrap;html=1;" parent="zkfFHV4jXpPFQw0GAbJ--0" vertex="1"><mxGeometry y="126" width="370" height="30" as="geometry"/></mxCell><mxCell id="nIXqTLBLyyWKumG9TFtc-6" value="+ CancelEvent(Event _event): void" style="text;strokeColor=none;fillColor=none;align=left;verticalAlign=middle;spacingLeft=4;spacingRight=4;overflow=hidden;points=[[0,0.5],[1,0.5]];portConstraint=eastwest;rotatable=0;whiteSpace=wrap;html=1;" parent="zkfFHV4jXpPFQw0GAbJ--0" vertex="1"><mxGeometry y="156" width="370" height="30" as="geometry"/></mxCell><mxCell id="nIXqTLBLyyWKumG9TFtc-8" value="+ ReadyEvent(Event _event): void" style="text;strokeColor=none;fillColor=none;align=left;verticalAlign=middle;spacingLeft=4;spacingRight=4;overflow=hidden;points=[[0,0.5],[1,0.5]];portConstraint=eastwest;rotatable=0;whiteSpace=wrap;html=1;" parent="zkfFHV4jXpPFQw0GAbJ--0" vertex="1"><mxGeometry y="186" width="370" height="30" as="geometry"/></mxCell><mxCell id="nIXqTLBLyyWKumG9TFtc-12" value="+ ActivateEvent(Event _event): void" style="text;strokeColor=none;fillColor=none;align=left;verticalAlign=middle;spacingLeft=4;spacingRight=4;overflow=hidden;points=[[0,0.5],[1,0.5]];portConstraint=eastwest;rotatable=0;whiteSpace=wrap;html=1;" parent="zkfFHV4jXpPFQw0GAbJ--0" vertex="1"><mxGeometry y="216" width="370" height="30" as="geometry"/></mxCell><mxCell id="nIXqTLBLyyWKumG9TFtc-11" value="+ DeleteEvent(Event _event): void" style="text;strokeColor=none;fillColor=none;align=left;verticalAlign=middle;spacingLeft=4;spacingRight=4;overflow=hidden;points=[[0,0.5],[1,0.5]];portConstraint=eastwest;rotatable=0;whiteSpace=wrap;html=1;" parent="zkfFHV4jXpPFQw0GAbJ--0" vertex="1"><mxGeometry y="246" width="370" height="30" as="geometry"/></mxCell><mxCell id="nIXqTLBLyyWKumG9TFtc-36" value="+ SetRequestStatus(status: Request:status, _event: Event): void" style="text;strokeColor=none;fillColor=none;align=left;verticalAlign=middle;spacingLeft=4;spacingRight=4;overflow=hidden;points=[[0,0.5],[1,0.5]];portConstraint=eastwest;rotatable=0;whiteSpace=wrap;html=1;" parent="zkfFHV4jXpPFQw0GAbJ--0" vertex="1"><mxGeometry y="276" width="370" height="30" as="geometry"/></mxCell><mxCell id="DEX5VwWHW_m0o6cI4k5w-26" style="edgeStyle=orthogonalEdgeStyle;rounded=0;orthogonalLoop=1;jettySize=auto;html=1;exitX=0.5;exitY=1;exitDx=0;exitDy=0;entryX=-0.002;entryY=0.397;entryDx=0;entryDy=0;entryPerimeter=0;" parent="WIyWlLk6GJQsqaUBKTNV-1" source="zkfFHV4jXpPFQw0GAbJ--6" target="zkfFHV4jXpPFQw0GAbJ--14" edge="1"><mxGeometry relative="1" as="geometry"><Array as="points"><mxPoint x="290" y="492"/><mxPoint x="250" y="492"/><mxPoint x="250" y="690"/></Array></mxGeometry></mxCell><mxCell id="zkfFHV4jXpPFQw0GAbJ--6" value="&lt;&lt;entity&gt;&gt;&#10;Invitation" style="swimlane;fontStyle=0;align=center;verticalAlign=top;childLayout=stackLayout;horizontal=1;startSize=40;horizontalStack=0;resizeParent=1;resizeLast=0;collapsible=1;marginBottom=0;rounded=0;shadow=0;strokeWidth=1;fillColor=#dae8fc;strokeColor=#6c8ebf;" parent="WIyWlLk6GJQsqaUBKTNV-1" vertex="1"><mxGeometry x="210" y="360" width="160" height="80" as="geometry"><mxRectangle x="130" y="380" width="160" height="26" as="alternateBounds"/></mxGeometry></mxCell><mxCell id="zkfFHV4jXpPFQw0GAbJ--8" value="+ status: InvitationStatus&#10;" style="text;align=left;verticalAlign=top;spacingLeft=4;spacingRight=4;overflow=hidden;rotatable=0;points=[[0,0.5],[1,0.5]];portConstraint=eastwest;rounded=0;shadow=0;html=0;" parent="zkfFHV4jXpPFQw0GAbJ--6" vertex="1"><mxGeometry y="40" width="160" height="26" as="geometry"/></mxCell><mxCell id="zkfFHV4jXpPFQw0GAbJ--9" value="" style="line;html=1;strokeWidth=1;align=left;verticalAlign=middle;spacingTop=-1;spacingLeft=3;spacingRight=3;rotatable=0;labelPosition=right;points=[];portConstraint=eastwest;" parent="zkfFHV4jXpPFQw0GAbJ--6" vertex="1"><mxGeometry y="66" width="160" height="8" as="geometry"/></mxCell><mxCell id="_RrmoXPhH2mf_FNRbu7P-19" style="edgeStyle=orthogonalEdgeStyle;rounded=0;orthogonalLoop=1;jettySize=auto;html=1;exitX=1;exitY=0.5;exitDx=0;exitDy=0;entryX=0.75;entryY=1;entryDx=0;entryDy=0;" parent="WIyWlLk6GJQsqaUBKTNV-1" source="zkfFHV4jXpPFQw0GAbJ--13" target="zkfFHV4jXpPFQw0GAbJ--17" edge="1"><mxGeometry relative="1" as="geometry"/></mxCell><mxCell id="zkfFHV4jXpPFQw0GAbJ--13" value="&lt;&lt;aggregate&gt;&gt;&#10;Guest" style="swimlane;fontStyle=2;align=center;verticalAlign=top;childLayout=stackLayout;horizontal=1;startSize=40;horizontalStack=0;resizeParent=1;resizeLast=0;collapsible=1;marginBottom=0;rounded=0;shadow=0;strokeWidth=1;fillColor=#d5e8d4;strokeColor=#82b366;" parent="WIyWlLk6GJQsqaUBKTNV-1" vertex="1"><mxGeometry x="380" y="640" width="290" height="392" as="geometry"><mxRectangle x="380" y="640" width="170" height="26" as="alternateBounds"/></mxGeometry></mxCell><mxCell id="zkfFHV4jXpPFQw0GAbJ--14" value="- email: string" style="text;align=left;verticalAlign=top;spacingLeft=4;spacingRight=4;overflow=hidden;rotatable=0;points=[[0,0.5],[1,0.5]];portConstraint=eastwest;" parent="zkfFHV4jXpPFQw0GAbJ--13" vertex="1"><mxGeometry y="40" width="290" height="26" as="geometry"/></mxCell><mxCell id="27" value="- requests: List&amp;lt;Request&amp;gt;" style="text;strokeColor=none;fillColor=none;align=left;verticalAlign=middle;spacingLeft=4;spacingRight=4;overflow=hidden;points=[[0,0.5],[1,0.5]];portConstraint=eastwest;rotatable=0;whiteSpace=wrap;html=1;" vertex="1" parent="zkfFHV4jXpPFQw0GAbJ--13"><mxGeometry y="66" width="290" height="30" as="geometry"/></mxCell><mxCell id="28" value="- Invitations: List&amp;lt;Invitation&amp;gt;" style="text;strokeColor=none;fillColor=none;align=left;verticalAlign=middle;spacingLeft=4;spacingRight=4;overflow=hidden;points=[[0,0.5],[1,0.5]];portConstraint=eastwest;rotatable=0;whiteSpace=wrap;html=1;" vertex="1" parent="zkfFHV4jXpPFQw0GAbJ--13"><mxGeometry y="96" width="290" height="30" as="geometry"/></mxCell><mxCell id="zkfFHV4jXpPFQw0GAbJ--15" value="" style="line;html=1;strokeWidth=1;align=left;verticalAlign=middle;spacingTop=-1;spacingLeft=3;spacingRight=3;rotatable=0;labelPosition=right;points=[];portConstraint=eastwest;" parent="zkfFHV4jXpPFQw0GAbJ--13" vertex="1"><mxGeometry y="126" width="290" height="8" as="geometry"/></mxCell><mxCell id="5" value="+ Guest()" style="text;strokeColor=none;fillColor=none;align=left;verticalAlign=middle;spacingLeft=4;spacingRight=4;overflow=hidden;points=[[0,0.5],[1,0.5]];portConstraint=eastwest;rotatable=0;whiteSpace=wrap;html=1;" parent="zkfFHV4jXpPFQw0GAbJ--13" vertex="1"><mxGeometry y="134" width="290" height="30" as="geometry"/></mxCell><mxCell id="1a2P5BJw6rFshWy5iL-F-5" value="+ Participate(_event: Event): void" style="text;strokeColor=none;fillColor=none;align=left;verticalAlign=middle;spacingLeft=4;spacingRight=4;overflow=hidden;points=[[0,0.5],[1,0.5]];portConstraint=eastwest;rotatable=0;whiteSpace=wrap;html=1;" parent="zkfFHV4jXpPFQw0GAbJ--13" vertex="1"><mxGeometry y="164" width="290" height="30" as="geometry"/></mxCell><mxCell id="1a2P5BJw6rFshWy5iL-F-3" value="+ RemoveParticipation(): void" style="text;strokeColor=none;fillColor=none;align=left;verticalAlign=middle;spacingLeft=4;spacingRight=4;overflow=hidden;points=[[0,0.5],[1,0.5]];portConstraint=eastwest;rotatable=0;whiteSpace=wrap;html=1;" parent="zkfFHV4jXpPFQw0GAbJ--13" vertex="1"><mxGeometry y="194" width="290" height="30" as="geometry"/></mxCell><mxCell id="nIXqTLBLyyWKumG9TFtc-18" value="+ RequestToJoin(): void" style="text;strokeColor=none;fillColor=none;align=left;verticalAlign=top;spacingLeft=4;spacingRight=4;overflow=hidden;rotatable=0;points=[[0,0.5],[1,0.5]];portConstraint=eastwest;whiteSpace=wrap;html=1;" parent="zkfFHV4jXpPFQw0GAbJ--13" vertex="1"><mxGeometry y="224" width="290" height="26" as="geometry"/></mxCell><mxCell id="_RrmoXPhH2mf_FNRbu7P-7" value="- AcceptInvitation(): void" style="text;align=left;verticalAlign=top;spacingLeft=4;spacingRight=4;overflow=hidden;rotatable=0;points=[[0,0.5],[1,0.5]];portConstraint=eastwest;rounded=0;shadow=0;html=0;" parent="zkfFHV4jXpPFQw0GAbJ--13" vertex="1"><mxGeometry y="250" width="290" height="26" as="geometry"/></mxCell><mxCell id="_RrmoXPhH2mf_FNRbu7P-8" value="+ DeclineInvitation(): void&#10;" style="text;align=left;verticalAlign=top;spacingLeft=4;spacingRight=4;overflow=hidden;rotatable=0;points=[[0,0.5],[1,0.5]];portConstraint=eastwest;rounded=0;shadow=0;html=0;" parent="zkfFHV4jXpPFQw0GAbJ--13" vertex="1"><mxGeometry y="276" width="290" height="26" as="geometry"/></mxCell><mxCell id="11" value="+ GetRequests(): List&amp;lt;Request&amp;gt;" style="text;strokeColor=none;fillColor=none;align=left;verticalAlign=middle;spacingLeft=4;spacingRight=4;overflow=hidden;points=[[0,0.5],[1,0.5]];portConstraint=eastwest;rotatable=0;whiteSpace=wrap;html=1;" vertex="1" parent="zkfFHV4jXpPFQw0GAbJ--13"><mxGeometry y="302" width="290" height="30" as="geometry"/></mxCell><mxCell id="24" value="+ GetInvitations(): List&amp;lt;Invitations&amp;gt;" style="text;strokeColor=none;fillColor=none;align=left;verticalAlign=middle;spacingLeft=4;spacingRight=4;overflow=hidden;points=[[0,0.5],[1,0.5]];portConstraint=eastwest;rotatable=0;whiteSpace=wrap;html=1;" vertex="1" parent="zkfFHV4jXpPFQw0GAbJ--13"><mxGeometry y="332" width="290" height="30" as="geometry"/></mxCell><mxCell id="25" value="+ SetInvitations(inviatations: List&amp;lt;Invitation&amp;gt;): void" style="text;strokeColor=none;fillColor=none;align=left;verticalAlign=middle;spacingLeft=4;spacingRight=4;overflow=hidden;points=[[0,0.5],[1,0.5]];portConstraint=eastwest;rotatable=0;whiteSpace=wrap;html=1;" vertex="1" parent="zkfFHV4jXpPFQw0GAbJ--13"><mxGeometry y="362" width="290" height="30" as="geometry"/></mxCell><mxCell id="zkfFHV4jXpPFQw0GAbJ--17" value="&lt;&lt;aggregate&gt;&gt;&#10;Event&#10;" style="swimlane;fontStyle=0;align=center;verticalAlign=top;childLayout=stackLayout;horizontal=1;startSize=40;horizontalStack=0;resizeParent=1;resizeLast=0;collapsible=1;marginBottom=0;rounded=0;shadow=0;strokeWidth=1;fillColor=#d5e8d4;strokeColor=#82b366;" parent="WIyWlLk6GJQsqaUBKTNV-1" vertex="1"><mxGeometry x="508" y="120" width="312" height="504" as="geometry"><mxRectangle x="550" y="140" width="160" height="26" as="alternateBounds"/></mxGeometry></mxCell><mxCell id="nIXqTLBLyyWKumG9TFtc-39" value="- id: int" style="text;strokeColor=none;fillColor=none;align=left;verticalAlign=top;spacingLeft=4;spacingRight=4;overflow=hidden;rotatable=0;points=[[0,0.5],[1,0.5]];portConstraint=eastwest;whiteSpace=wrap;html=1;" parent="zkfFHV4jXpPFQw0GAbJ--17" vertex="1"><mxGeometry y="40" width="312" height="26" as="geometry"/></mxCell><mxCell id="zkfFHV4jXpPFQw0GAbJ--22" value="+ title: string" style="text;align=left;verticalAlign=top;spacingLeft=4;spacingRight=4;overflow=hidden;rotatable=0;points=[[0,0.5],[1,0.5]];portConstraint=eastwest;rounded=0;shadow=0;html=0;" parent="zkfFHV4jXpPFQw0GAbJ--17" vertex="1"><mxGeometry y="66" width="312" height="22" as="geometry"/></mxCell><mxCell id="DEX5VwWHW_m0o6cI4k5w-0" value="+ description: string&#10;" style="text;align=left;verticalAlign=top;spacingLeft=4;spacingRight=4;overflow=hidden;rotatable=0;points=[[0,0.5],[1,0.5]];portConstraint=eastwest;rounded=0;shadow=0;html=0;" parent="zkfFHV4jXpPFQw0GAbJ--17" vertex="1"><mxGeometry y="88" width="312" height="26" as="geometry"/></mxCell><mxCell id="zkfFHV4jXpPFQw0GAbJ--24" value="+ start_date_time: DateTime" style="text;align=left;verticalAlign=top;spacingLeft=4;spacingRight=4;overflow=hidden;rotatable=0;points=[[0,0.5],[1,0.5]];portConstraint=eastwest;" parent="zkfFHV4jXpPFQw0GAbJ--17" vertex="1"><mxGeometry y="114" width="312" height="26" as="geometry"/></mxCell><mxCell id="zkfFHV4jXpPFQw0GAbJ--25" value="+ end_date_time: DateTime" style="text;align=left;verticalAlign=top;spacingLeft=4;spacingRight=4;overflow=hidden;rotatable=0;points=[[0,0.5],[1,0.5]];portConstraint=eastwest;" parent="zkfFHV4jXpPFQw0GAbJ--17" vertex="1"><mxGeometry y="140" width="312" height="26" as="geometry"/></mxCell><mxCell id="DEX5VwWHW_m0o6cI4k5w-2" value="- max_guests: int&#10;" style="text;align=left;verticalAlign=top;spacingLeft=4;spacingRight=4;overflow=hidden;rotatable=0;points=[[0,0.5],[1,0.5]];portConstraint=eastwest;" parent="zkfFHV4jXpPFQw0GAbJ--17" vertex="1"><mxGeometry y="166" width="312" height="26" as="geometry"/></mxCell><mxCell id="DEX5VwWHW_m0o6cI4k5w-1" value="- visibility: EventVisibility&#10;" style="text;align=left;verticalAlign=top;spacingLeft=4;spacingRight=4;overflow=hidden;rotatable=0;points=[[0,0.5],[1,0.5]];portConstraint=eastwest;" parent="zkfFHV4jXpPFQw0GAbJ--17" vertex="1"><mxGeometry y="192" width="312" height="26" as="geometry"/></mxCell><mxCell id="_RrmoXPhH2mf_FNRbu7P-32" value="+ status: EventStatus" style="text;align=left;verticalAlign=top;spacingLeft=4;spacingRight=4;overflow=hidden;rotatable=0;points=[[0,0.5],[1,0.5]];portConstraint=eastwest;rounded=0;shadow=0;html=0;" parent="zkfFHV4jXpPFQw0GAbJ--17" vertex="1"><mxGeometry y="218" width="312" height="22" as="geometry"/></mxCell><mxCell id="nIXqTLBLyyWKumG9TFtc-28" value="- guests: List&amp;lt;Guest&amp;gt;" style="text;strokeColor=none;fillColor=none;align=left;verticalAlign=top;spacingLeft=4;spacingRight=4;overflow=hidden;rotatable=0;points=[[0,0.5],[1,0.5]];portConstraint=eastwest;whiteSpace=wrap;html=1;" parent="zkfFHV4jXpPFQw0GAbJ--17" vertex="1"><mxGeometry y="240" width="312" height="26" as="geometry"/></mxCell><mxCell id="zkfFHV4jXpPFQw0GAbJ--23" value="" style="line;html=1;strokeWidth=1;align=left;verticalAlign=middle;spacingTop=-1;spacingLeft=3;spacingRight=3;rotatable=0;labelPosition=right;points=[];portConstraint=eastwest;" parent="zkfFHV4jXpPFQw0GAbJ--17" vertex="1"><mxGeometry y="266" width="312" height="8" as="geometry"/></mxCell><mxCell id="3" value="+ Event()" style="text;strokeColor=none;fillColor=none;align=left;verticalAlign=middle;spacingLeft=4;spacingRight=4;overflow=hidden;points=[[0,0.5],[1,0.5]];portConstraint=eastwest;rotatable=0;whiteSpace=wrap;html=1;" parent="zkfFHV4jXpPFQw0GAbJ--17" vertex="1"><mxGeometry y="274" width="312" height="30" as="geometry"/></mxCell><mxCell id="_RrmoXPhH2mf_FNRbu7P-0" value="+ UpdateTitle(title: string): void&#10;" style="text;align=left;verticalAlign=top;spacingLeft=4;spacingRight=4;overflow=hidden;rotatable=0;points=[[0,0.5],[1,0.5]];portConstraint=eastwest;" parent="zkfFHV4jXpPFQw0GAbJ--17" vertex="1"><mxGeometry y="304" width="312" height="26" as="geometry"/></mxCell><mxCell id="_RrmoXPhH2mf_FNRbu7P-1" value="+ UpdateDescription(description: string): void&#10;" style="text;align=left;verticalAlign=top;spacingLeft=4;spacingRight=4;overflow=hidden;rotatable=0;points=[[0,0.5],[1,0.5]];portConstraint=eastwest;" parent="zkfFHV4jXpPFQw0GAbJ--17" vertex="1"><mxGeometry y="330" width="312" height="26" as="geometry"/></mxCell><mxCell id="_RrmoXPhH2mf_FNRbu7P-5" value="+ SetVisibility(visibility: EventVisibility): void" style="text;align=left;verticalAlign=top;spacingLeft=4;spacingRight=4;overflow=hidden;rotatable=0;points=[[0,0.5],[1,0.5]];portConstraint=eastwest;" parent="zkfFHV4jXpPFQw0GAbJ--17" vertex="1"><mxGeometry y="356" width="312" height="30" as="geometry"/></mxCell><mxCell id="_RrmoXPhH2mf_FNRbu7P-4" value="+ UpdateStartDateTime(startDateTime: DateTime): void&#10;" style="text;align=left;verticalAlign=top;spacingLeft=4;spacingRight=4;overflow=hidden;rotatable=0;points=[[0,0.5],[1,0.5]];portConstraint=eastwest;" parent="zkfFHV4jXpPFQw0GAbJ--17" vertex="1"><mxGeometry y="386" width="312" height="28" as="geometry"/></mxCell><mxCell id="_RrmoXPhH2mf_FNRbu7P-2" value="+ UpdateEndDateTime(endDateTime: DateTime): void&#10;" style="text;align=left;verticalAlign=top;spacingLeft=4;spacingRight=4;overflow=hidden;rotatable=0;points=[[0,0.5],[1,0.5]];portConstraint=eastwest;" parent="zkfFHV4jXpPFQw0GAbJ--17" vertex="1"><mxGeometry y="414" width="312" height="30" as="geometry"/></mxCell><mxCell id="_RrmoXPhH2mf_FNRbu7P-6" value="+ SetMaxGuests(maxGuests: int): void" style="text;align=left;verticalAlign=top;spacingLeft=4;spacingRight=4;overflow=hidden;rotatable=0;points=[[0,0.5],[1,0.5]];portConstraint=eastwest;" parent="zkfFHV4jXpPFQw0GAbJ--17" vertex="1"><mxGeometry y="444" width="312" height="30" as="geometry"/></mxCell><mxCell id="_RrmoXPhH2mf_FNRbu7P-56" value="+ SetLocation(location: Location): void" style="text;align=left;verticalAlign=top;spacingLeft=4;spacingRight=4;overflow=hidden;rotatable=0;points=[[0,0.5],[1,0.5]];portConstraint=eastwest;" parent="zkfFHV4jXpPFQw0GAbJ--17" vertex="1"><mxGeometry y="474" width="312" height="30" as="geometry"/></mxCell><mxCell id="DEX5VwWHW_m0o6cI4k5w-6" value="1" style="text;html=1;align=center;verticalAlign=middle;whiteSpace=wrap;rounded=0;" parent="WIyWlLk6GJQsqaUBKTNV-1" vertex="1"><mxGeometry x="700" y="594" width="60" height="30" as="geometry"/></mxCell><mxCell id="DEX5VwWHW_m0o6cI4k5w-7" value="*" style="text;html=1;align=center;verticalAlign=middle;whiteSpace=wrap;rounded=0;" parent="WIyWlLk6GJQsqaUBKTNV-1" vertex="1"><mxGeometry x="710" y="640" width="20" height="20" as="geometry"/></mxCell><mxCell id="DEX5VwWHW_m0o6cI4k5w-8" value="&lt;&lt;enum&gt;&gt;&#10;EventVisibility&#10;" style="swimlane;fontStyle=0;align=center;verticalAlign=top;childLayout=stackLayout;horizontal=1;startSize=40;horizontalStack=0;resizeParent=1;resizeLast=0;collapsible=1;marginBottom=0;rounded=0;shadow=0;strokeWidth=1;fillColor=#f8cecc;strokeColor=#b85450;" parent="WIyWlLk6GJQsqaUBKTNV-1" vertex="1"><mxGeometry x="980" y="253" width="160" height="92" as="geometry"><mxRectangle x="130" y="380" width="160" height="26" as="alternateBounds"/></mxGeometry></mxCell><mxCell id="DEX5VwWHW_m0o6cI4k5w-20" value="Public" style="text;align=left;verticalAlign=top;spacingLeft=4;spacingRight=4;overflow=hidden;rotatable=0;points=[[0,0.5],[1,0.5]];portConstraint=eastwest;rounded=0;shadow=0;html=0;" parent="DEX5VwWHW_m0o6cI4k5w-8" vertex="1"><mxGeometry y="40" width="160" height="26" as="geometry"/></mxCell><mxCell id="DEX5VwWHW_m0o6cI4k5w-9" value="Private&#10;" style="text;align=left;verticalAlign=top;spacingLeft=4;spacingRight=4;overflow=hidden;rotatable=0;points=[[0,0.5],[1,0.5]];portConstraint=eastwest;rounded=0;shadow=0;html=0;" parent="DEX5VwWHW_m0o6cI4k5w-8" vertex="1"><mxGeometry y="66" width="160" height="26" as="geometry"/></mxCell><mxCell id="DEX5VwWHW_m0o6cI4k5w-22" style="edgeStyle=orthogonalEdgeStyle;rounded=0;orthogonalLoop=1;jettySize=auto;html=1;exitX=1;exitY=0.5;exitDx=0;exitDy=0;entryX=0.025;entryY=0.192;entryDx=0;entryDy=0;entryPerimeter=0;" parent="WIyWlLk6GJQsqaUBKTNV-1" source="DEX5VwWHW_m0o6cI4k5w-1" target="DEX5VwWHW_m0o6cI4k5w-20" edge="1"><mxGeometry relative="1" as="geometry"><Array as="points"><mxPoint x="820" y="298"/></Array></mxGeometry></mxCell><mxCell id="DEX5VwWHW_m0o6cI4k5w-27" value="&lt;&lt;value&gt;&gt;&#10;DateTime&#10;" style="swimlane;fontStyle=0;align=center;verticalAlign=top;childLayout=stackLayout;horizontal=1;startSize=40;horizontalStack=0;resizeParent=1;resizeLast=0;collapsible=1;marginBottom=0;rounded=0;shadow=0;strokeWidth=1;fillColor=#ffcd28;strokeColor=#d79b00;gradientColor=#6E4700;" parent="WIyWlLk6GJQsqaUBKTNV-1" vertex="1"><mxGeometry x="980" y="40" width="160" height="170" as="geometry"><mxRectangle x="130" y="380" width="160" height="26" as="alternateBounds"/></mxGeometry></mxCell><mxCell id="DEX5VwWHW_m0o6cI4k5w-28" value="+ year: int&#10;" style="text;align=left;verticalAlign=top;spacingLeft=4;spacingRight=4;overflow=hidden;rotatable=0;points=[[0,0.5],[1,0.5]];portConstraint=eastwest;rounded=0;shadow=0;html=0;" parent="DEX5VwWHW_m0o6cI4k5w-27" vertex="1"><mxGeometry y="40" width="160" height="26" as="geometry"/></mxCell><mxCell id="DEX5VwWHW_m0o6cI4k5w-29" value="+ month: int&#10;" style="text;align=left;verticalAlign=top;spacingLeft=4;spacingRight=4;overflow=hidden;rotatable=0;points=[[0,0.5],[1,0.5]];portConstraint=eastwest;rounded=0;shadow=0;html=0;" parent="DEX5VwWHW_m0o6cI4k5w-27" vertex="1"><mxGeometry y="66" width="160" height="26" as="geometry"/></mxCell><mxCell id="DEX5VwWHW_m0o6cI4k5w-31" value="+ day: int" style="text;align=left;verticalAlign=top;spacingLeft=4;spacingRight=4;overflow=hidden;rotatable=0;points=[[0,0.5],[1,0.5]];portConstraint=eastwest;rounded=0;shadow=0;html=0;" parent="DEX5VwWHW_m0o6cI4k5w-27" vertex="1"><mxGeometry y="92" width="160" height="26" as="geometry"/></mxCell><mxCell id="DEX5VwWHW_m0o6cI4k5w-32" value="+ hour: int&#10;" style="text;align=left;verticalAlign=top;spacingLeft=4;spacingRight=4;overflow=hidden;rotatable=0;points=[[0,0.5],[1,0.5]];portConstraint=eastwest;rounded=0;shadow=0;html=0;" parent="DEX5VwWHW_m0o6cI4k5w-27" vertex="1"><mxGeometry y="118" width="160" height="26" as="geometry"/></mxCell><mxCell id="DEX5VwWHW_m0o6cI4k5w-30" value="+ minute: int&#10;" style="text;align=left;verticalAlign=top;spacingLeft=4;spacingRight=4;overflow=hidden;rotatable=0;points=[[0,0.5],[1,0.5]];portConstraint=eastwest;rounded=0;shadow=0;html=0;" parent="DEX5VwWHW_m0o6cI4k5w-27" vertex="1"><mxGeometry y="144" width="160" height="26" as="geometry"/></mxCell><mxCell id="DEX5VwWHW_m0o6cI4k5w-34" style="edgeStyle=orthogonalEdgeStyle;rounded=0;orthogonalLoop=1;jettySize=auto;html=1;exitX=1;exitY=0.5;exitDx=0;exitDy=0;entryX=0;entryY=0.5;entryDx=0;entryDy=0;" parent="WIyWlLk6GJQsqaUBKTNV-1" source="zkfFHV4jXpPFQw0GAbJ--24" target="DEX5VwWHW_m0o6cI4k5w-31" edge="1"><mxGeometry relative="1" as="geometry"><Array as="points"><mxPoint x="890" y="221"/><mxPoint x="890" y="145"/></Array></mxGeometry></mxCell><mxCell id="DEX5VwWHW_m0o6cI4k5w-35" style="edgeStyle=orthogonalEdgeStyle;rounded=0;orthogonalLoop=1;jettySize=auto;html=1;exitX=1;exitY=0.5;exitDx=0;exitDy=0;entryX=0.013;entryY=-0.385;entryDx=0;entryDy=0;entryPerimeter=0;" parent="WIyWlLk6GJQsqaUBKTNV-1" source="zkfFHV4jXpPFQw0GAbJ--25" target="DEX5VwWHW_m0o6cI4k5w-30" edge="1"><mxGeometry relative="1" as="geometry"><Array as="points"><mxPoint x="920" y="247"/><mxPoint x="920" y="174"/></Array></mxGeometry></mxCell><mxCell id="DEX5VwWHW_m0o6cI4k5w-49" value="&lt;&lt;enum&gt;&gt;&#10;InvitationStatus" style="swimlane;fontStyle=0;align=center;verticalAlign=top;childLayout=stackLayout;horizontal=1;startSize=42;horizontalStack=0;resizeParent=1;resizeLast=0;collapsible=1;marginBottom=0;rounded=0;shadow=0;strokeWidth=1;fillColor=#f8cecc;strokeColor=#b85450;" parent="WIyWlLk6GJQsqaUBKTNV-1" vertex="1"><mxGeometry x="-60" y="360" width="160" height="120" as="geometry"><mxRectangle x="340" y="380" width="170" height="26" as="alternateBounds"/></mxGeometry></mxCell><mxCell id="DEX5VwWHW_m0o6cI4k5w-50" value="Accepted&#10;" style="text;align=left;verticalAlign=top;spacingLeft=4;spacingRight=4;overflow=hidden;rotatable=0;points=[[0,0.5],[1,0.5]];portConstraint=eastwest;" parent="DEX5VwWHW_m0o6cI4k5w-49" vertex="1"><mxGeometry y="42" width="160" height="26" as="geometry"/></mxCell><mxCell id="DEX5VwWHW_m0o6cI4k5w-53" value="Declined" style="text;align=left;verticalAlign=top;spacingLeft=4;spacingRight=4;overflow=hidden;rotatable=0;points=[[0,0.5],[1,0.5]];portConstraint=eastwest;" parent="DEX5VwWHW_m0o6cI4k5w-49" vertex="1"><mxGeometry y="68" width="160" height="26" as="geometry"/></mxCell><mxCell id="_RrmoXPhH2mf_FNRbu7P-9" value="Unanswered" style="text;align=left;verticalAlign=top;spacingLeft=4;spacingRight=4;overflow=hidden;rotatable=0;points=[[0,0.5],[1,0.5]];portConstraint=eastwest;" parent="DEX5VwWHW_m0o6cI4k5w-49" vertex="1"><mxGeometry y="94" width="160" height="26" as="geometry"/></mxCell><mxCell id="DEX5VwWHW_m0o6cI4k5w-52" style="edgeStyle=orthogonalEdgeStyle;rounded=0;orthogonalLoop=1;jettySize=auto;html=1;exitX=0;exitY=0.5;exitDx=0;exitDy=0;" parent="WIyWlLk6GJQsqaUBKTNV-1" edge="1"><mxGeometry relative="1" as="geometry"><mxPoint x="100" y="425" as="targetPoint"/><Array as="points"><mxPoint x="156" y="424"/><mxPoint x="156" y="425"/></Array><mxPoint x="210" y="424" as="sourcePoint"/></mxGeometry></mxCell><mxCell id="_RrmoXPhH2mf_FNRbu7P-12" value="&amp;lt; sends" style="text;html=1;align=center;verticalAlign=middle;whiteSpace=wrap;rounded=0;rotation=-90;" parent="WIyWlLk6GJQsqaUBKTNV-1" vertex="1"><mxGeometry x="230" y="280" width="60" height="30" as="geometry"/></mxCell><mxCell id="_RrmoXPhH2mf_FNRbu7P-21" value="participates In &amp;gt;" style="text;html=1;align=center;verticalAlign=middle;whiteSpace=wrap;rounded=0;" parent="WIyWlLk6GJQsqaUBKTNV-1" vertex="1"><mxGeometry x="670" y="851" width="90" height="18" as="geometry"/></mxCell><mxCell id="_RrmoXPhH2mf_FNRbu7P-29" value="&lt;&lt;enum&gt;&gt;&#10;EventStatus&#10;" style="swimlane;fontStyle=0;align=center;verticalAlign=top;childLayout=stackLayout;horizontal=1;startSize=40;horizontalStack=0;resizeParent=1;resizeLast=0;collapsible=1;marginBottom=0;rounded=0;shadow=0;strokeWidth=1;fillColor=#f8cecc;strokeColor=#b85450;" parent="WIyWlLk6GJQsqaUBKTNV-1" vertex="1"><mxGeometry x="508" y="-170" width="160" height="182" as="geometry"><mxRectangle x="130" y="380" width="160" height="26" as="alternateBounds"/></mxGeometry></mxCell><mxCell id="_RrmoXPhH2mf_FNRbu7P-30" value="draft" style="text;align=left;verticalAlign=top;spacingLeft=4;spacingRight=4;overflow=hidden;rotatable=0;points=[[0,0.5],[1,0.5]];portConstraint=eastwest;rounded=0;shadow=0;html=0;" parent="_RrmoXPhH2mf_FNRbu7P-29" vertex="1"><mxGeometry y="40" width="160" height="26" as="geometry"/></mxCell><mxCell id="_RrmoXPhH2mf_FNRbu7P-31" value="active" style="text;align=left;verticalAlign=top;spacingLeft=4;spacingRight=4;overflow=hidden;rotatable=0;points=[[0,0.5],[1,0.5]];portConstraint=eastwest;rounded=0;shadow=0;html=0;" parent="_RrmoXPhH2mf_FNRbu7P-29" vertex="1"><mxGeometry y="66" width="160" height="26" as="geometry"/></mxCell><mxCell id="nIXqTLBLyyWKumG9TFtc-3" value="cancelled" style="text;strokeColor=none;fillColor=none;align=left;verticalAlign=middle;spacingLeft=4;spacingRight=4;overflow=hidden;points=[[0,0.5],[1,0.5]];portConstraint=eastwest;rotatable=0;whiteSpace=wrap;html=1;" parent="_RrmoXPhH2mf_FNRbu7P-29" vertex="1"><mxGeometry y="92" width="160" height="30" as="geometry"/></mxCell><mxCell id="nIXqTLBLyyWKumG9TFtc-4" value="deleted" style="text;strokeColor=none;fillColor=none;align=left;verticalAlign=middle;spacingLeft=4;spacingRight=4;overflow=hidden;points=[[0,0.5],[1,0.5]];portConstraint=eastwest;rotatable=0;whiteSpace=wrap;html=1;" parent="_RrmoXPhH2mf_FNRbu7P-29" vertex="1"><mxGeometry y="122" width="160" height="30" as="geometry"/></mxCell><mxCell id="nIXqTLBLyyWKumG9TFtc-7" value="ready" style="text;strokeColor=none;fillColor=none;align=left;verticalAlign=middle;spacingLeft=4;spacingRight=4;overflow=hidden;points=[[0,0.5],[1,0.5]];portConstraint=eastwest;rotatable=0;whiteSpace=wrap;html=1;" parent="_RrmoXPhH2mf_FNRbu7P-29" vertex="1"><mxGeometry y="152" width="160" height="30" as="geometry"/></mxCell><mxCell id="_RrmoXPhH2mf_FNRbu7P-33" style="edgeStyle=orthogonalEdgeStyle;rounded=0;orthogonalLoop=1;jettySize=auto;html=1;exitX=0.25;exitY=0;exitDx=0;exitDy=0;entryX=0.456;entryY=1.033;entryDx=0;entryDy=0;entryPerimeter=0;" parent="WIyWlLk6GJQsqaUBKTNV-1" target="nIXqTLBLyyWKumG9TFtc-7" edge="1"><mxGeometry relative="1" as="geometry"><Array as="points"><mxPoint x="585" y="30"/><mxPoint x="581" y="30"/></Array><mxPoint x="585.04" y="137.01" as="sourcePoint"/><mxPoint x="580" y="30.00000000000001" as="targetPoint"/></mxGeometry></mxCell><mxCell id="_RrmoXPhH2mf_FNRbu7P-36" value="*" style="text;html=1;align=center;verticalAlign=middle;whiteSpace=wrap;rounded=0;" parent="WIyWlLk6GJQsqaUBKTNV-1" vertex="1"><mxGeometry x="300" y="360" width="20" height="20" as="geometry"/></mxCell><mxCell id="_RrmoXPhH2mf_FNRbu7P-38" value="&lt;&lt;aggregate&gt;&gt;&#10;Location&#10;" style="swimlane;fontStyle=0;align=center;verticalAlign=top;childLayout=stackLayout;horizontal=1;startSize=40;horizontalStack=0;resizeParent=1;resizeLast=0;collapsible=1;marginBottom=0;rounded=0;shadow=0;strokeWidth=1;fillColor=#d5e8d4;strokeColor=#82b366;" parent="WIyWlLk6GJQsqaUBKTNV-1" vertex="1"><mxGeometry x="990" y="457" width="360" height="238" as="geometry"><mxRectangle x="550" y="140" width="160" height="26" as="alternateBounds"/></mxGeometry></mxCell><mxCell id="_RrmoXPhH2mf_FNRbu7P-39" value="+ name: string" style="text;align=left;verticalAlign=top;spacingLeft=4;spacingRight=4;overflow=hidden;rotatable=0;points=[[0,0.5],[1,0.5]];portConstraint=eastwest;rounded=0;shadow=0;html=0;" parent="_RrmoXPhH2mf_FNRbu7P-38" vertex="1"><mxGeometry y="40" width="360" height="22" as="geometry"/></mxCell><mxCell id="_RrmoXPhH2mf_FNRbu7P-40" value="+ maxCapacity: string&#10;" style="text;align=left;verticalAlign=top;spacingLeft=4;spacingRight=4;overflow=hidden;rotatable=0;points=[[0,0.5],[1,0.5]];portConstraint=eastwest;rounded=0;shadow=0;html=0;" parent="_RrmoXPhH2mf_FNRbu7P-38" vertex="1"><mxGeometry y="62" width="360" height="26" as="geometry"/></mxCell><mxCell id="_RrmoXPhH2mf_FNRbu7P-41" value="+ availability: List&lt;DateTime&gt;" style="text;align=left;verticalAlign=top;spacingLeft=4;spacingRight=4;overflow=hidden;rotatable=0;points=[[0,0.5],[1,0.5]];portConstraint=eastwest;" parent="_RrmoXPhH2mf_FNRbu7P-38" vertex="1"><mxGeometry y="88" width="360" height="26" as="geometry"/></mxCell><mxCell id="_RrmoXPhH2mf_FNRbu7P-46" value="" style="line;html=1;strokeWidth=1;align=left;verticalAlign=middle;spacingTop=-1;spacingLeft=3;spacingRight=3;rotatable=0;labelPosition=right;points=[];portConstraint=eastwest;" parent="_RrmoXPhH2mf_FNRbu7P-38" vertex="1"><mxGeometry y="114" width="360" height="8" as="geometry"/></mxCell><mxCell id="7" value="+ Location()" style="text;strokeColor=none;fillColor=none;align=left;verticalAlign=middle;spacingLeft=4;spacingRight=4;overflow=hidden;points=[[0,0.5],[1,0.5]];portConstraint=eastwest;rotatable=0;whiteSpace=wrap;html=1;" parent="_RrmoXPhH2mf_FNRbu7P-38" vertex="1"><mxGeometry y="122" width="360" height="30" as="geometry"/></mxCell><mxCell id="_RrmoXPhH2mf_FNRbu7P-48" value="+ UpdateName(name: string): void&#10;" style="text;align=left;verticalAlign=top;spacingLeft=4;spacingRight=4;overflow=hidden;rotatable=0;points=[[0,0.5],[1,0.5]];portConstraint=eastwest;" parent="_RrmoXPhH2mf_FNRbu7P-38" vertex="1"><mxGeometry y="152" width="360" height="26" as="geometry"/></mxCell><mxCell id="_RrmoXPhH2mf_FNRbu7P-52" value="+ SetMaxCapacity(maxCapacity: int): void" style="text;align=left;verticalAlign=top;spacingLeft=4;spacingRight=4;overflow=hidden;rotatable=0;points=[[0,0.5],[1,0.5]];portConstraint=eastwest;" parent="_RrmoXPhH2mf_FNRbu7P-38" vertex="1"><mxGeometry y="178" width="360" height="30" as="geometry"/></mxCell><mxCell id="_RrmoXPhH2mf_FNRbu7P-55" value="+ SetAvailability(startDate: DateTime, endDate: DateTime): void" style="text;align=left;verticalAlign=top;spacingLeft=4;spacingRight=4;overflow=hidden;rotatable=0;points=[[0,0.5],[1,0.5]];portConstraint=eastwest;" parent="_RrmoXPhH2mf_FNRbu7P-38" vertex="1"><mxGeometry y="208" width="360" height="30" as="geometry"/></mxCell><mxCell id="_RrmoXPhH2mf_FNRbu7P-57" value="&lt;&lt;entity&gt;&gt;&#10;Request" style="swimlane;fontStyle=0;align=center;verticalAlign=top;childLayout=stackLayout;horizontal=1;startSize=40;horizontalStack=0;resizeParent=1;resizeLast=0;collapsible=1;marginBottom=0;rounded=0;shadow=0;strokeWidth=1;fillColor=#dae8fc;strokeColor=#6c8ebf;" parent="WIyWlLk6GJQsqaUBKTNV-1" vertex="1"><mxGeometry x="-30" y="497" width="240" height="254" as="geometry"><mxRectangle x="340" y="380" width="170" height="26" as="alternateBounds"/></mxGeometry></mxCell><mxCell id="nIXqTLBLyyWKumG9TFtc-21" value="+ status: RequestStatus" style="text;strokeColor=none;fillColor=none;align=left;verticalAlign=top;spacingLeft=4;spacingRight=4;overflow=hidden;rotatable=0;points=[[0,0.5],[1,0.5]];portConstraint=eastwest;whiteSpace=wrap;html=1;" parent="_RrmoXPhH2mf_FNRbu7P-57" vertex="1"><mxGeometry y="40" width="240" height="26" as="geometry"/></mxCell><mxCell id="13" value="- guest: Guest" style="text;strokeColor=none;fillColor=none;align=left;verticalAlign=middle;spacingLeft=4;spacingRight=4;overflow=hidden;points=[[0,0.5],[1,0.5]];portConstraint=eastwest;rotatable=0;whiteSpace=wrap;html=1;" vertex="1" parent="_RrmoXPhH2mf_FNRbu7P-57"><mxGeometry y="66" width="240" height="30" as="geometry"/></mxCell><mxCell id="15" value="- event: Event" style="text;strokeColor=none;fillColor=none;align=left;verticalAlign=middle;spacingLeft=4;spacingRight=4;overflow=hidden;points=[[0,0.5],[1,0.5]];portConstraint=eastwest;rotatable=0;whiteSpace=wrap;html=1;" vertex="1" parent="_RrmoXPhH2mf_FNRbu7P-57"><mxGeometry y="96" width="240" height="30" as="geometry"/></mxCell><mxCell id="_RrmoXPhH2mf_FNRbu7P-59" value="" style="line;html=1;strokeWidth=1;align=left;verticalAlign=middle;spacingTop=-1;spacingLeft=3;spacingRight=3;rotatable=0;labelPosition=right;points=[];portConstraint=eastwest;" parent="_RrmoXPhH2mf_FNRbu7P-57" vertex="1"><mxGeometry y="126" width="240" height="8" as="geometry"/></mxCell><mxCell id="12" value="+ GetEvent(): Event" style="text;strokeColor=none;fillColor=none;align=left;verticalAlign=middle;spacingLeft=4;spacingRight=4;overflow=hidden;points=[[0,0.5],[1,0.5]];portConstraint=eastwest;rotatable=0;whiteSpace=wrap;html=1;" vertex="1" parent="_RrmoXPhH2mf_FNRbu7P-57"><mxGeometry y="134" width="240" height="30" as="geometry"/></mxCell><mxCell id="16" value="+ SetEvent(_event: Event): void" style="text;strokeColor=none;fillColor=none;align=left;verticalAlign=middle;spacingLeft=4;spacingRight=4;overflow=hidden;points=[[0,0.5],[1,0.5]];portConstraint=eastwest;rotatable=0;whiteSpace=wrap;html=1;" vertex="1" parent="_RrmoXPhH2mf_FNRbu7P-57"><mxGeometry y="164" width="240" height="30" as="geometry"/></mxCell><mxCell id="17" value="+ GetGuest(): Guest" style="text;strokeColor=none;fillColor=none;align=left;verticalAlign=middle;spacingLeft=4;spacingRight=4;overflow=hidden;points=[[0,0.5],[1,0.5]];portConstraint=eastwest;rotatable=0;whiteSpace=wrap;html=1;" vertex="1" parent="_RrmoXPhH2mf_FNRbu7P-57"><mxGeometry y="194" width="240" height="30" as="geometry"/></mxCell><mxCell id="19" value="+ SetGuest(guest: Guest): void" style="text;strokeColor=none;fillColor=none;align=left;verticalAlign=middle;spacingLeft=4;spacingRight=4;overflow=hidden;points=[[0,0.5],[1,0.5]];portConstraint=eastwest;rotatable=0;whiteSpace=wrap;html=1;" vertex="1" parent="_RrmoXPhH2mf_FNRbu7P-57"><mxGeometry y="224" width="240" height="30" as="geometry"/></mxCell><mxCell id="0" value="" style="endArrow=classic;html=1;rounded=0;exitX=1;exitY=0;exitDx=0;exitDy=0;entryX=0;entryY=0.5;entryDx=0;entryDy=0;edgeStyle=orthogonalEdgeStyle;" parent="WIyWlLk6GJQsqaUBKTNV-1" source="zkfFHV4jXpPFQw0GAbJ--0" target="nIXqTLBLyyWKumG9TFtc-3" edge="1"><mxGeometry width="50" height="50" relative="1" as="geometry"><mxPoint x="690" y="310" as="sourcePoint"/><mxPoint x="740" y="260" as="targetPoint"/></mxGeometry></mxCell><mxCell id="1" value="manages &amp;gt;" style="edgeLabel;html=1;align=center;verticalAlign=middle;resizable=0;points=[];rotation=0;" parent="0" vertex="1" connectable="0"><mxGeometry x="-0.4303" relative="1" as="geometry"><mxPoint x="7" y="-7" as="offset"/></mxGeometry></mxCell><mxCell id="nIXqTLBLyyWKumG9TFtc-16" value="" style="endArrow=classic;html=1;rounded=0;exitX=0;exitY=0.867;exitDx=0;exitDy=0;exitPerimeter=0;entryX=0.75;entryY=1;entryDx=0;entryDy=0;edgeStyle=orthogonalEdgeStyle;" parent="WIyWlLk6GJQsqaUBKTNV-1" source="1a2P5BJw6rFshWy5iL-F-5" target="_RrmoXPhH2mf_FNRbu7P-57" edge="1"><mxGeometry width="50" height="50" relative="1" as="geometry"><mxPoint x="620" y="460" as="sourcePoint"/><mxPoint x="170" y="610" as="targetPoint"/></mxGeometry></mxCell><mxCell id="nIXqTLBLyyWKumG9TFtc-17" value="&amp;lt; Requests to Join" style="edgeLabel;html=1;align=center;verticalAlign=middle;resizable=0;points=[];" parent="nIXqTLBLyyWKumG9TFtc-16" vertex="1" connectable="0"><mxGeometry x="-0.5886" y="1" relative="1" as="geometry"><mxPoint x="-5" y="-12" as="offset"/></mxGeometry></mxCell><mxCell id="nIXqTLBLyyWKumG9TFtc-22" value="&amp;lt;&amp;lt;enum&amp;gt;&amp;gt;&lt;br&gt;RequestStatus" style="swimlane;fontStyle=0;childLayout=stackLayout;horizontal=1;startSize=30;horizontalStack=0;resizeParent=1;resizeParentMax=0;resizeLast=0;collapsible=1;marginBottom=0;whiteSpace=wrap;html=1;fillColor=#f8cecc;strokeColor=#b85450;" parent="WIyWlLk6GJQsqaUBKTNV-1" vertex="1"><mxGeometry x="20" y="800" width="140" height="120" as="geometry"/></mxCell><mxCell id="nIXqTLBLyyWKumG9TFtc-23" value="Approved" style="text;strokeColor=none;fillColor=none;align=left;verticalAlign=middle;spacingLeft=4;spacingRight=4;overflow=hidden;points=[[0,0.5],[1,0.5]];portConstraint=eastwest;rotatable=0;whiteSpace=wrap;html=1;" parent="nIXqTLBLyyWKumG9TFtc-22" vertex="1"><mxGeometry y="30" width="140" height="30" as="geometry"/></mxCell><mxCell id="nIXqTLBLyyWKumG9TFtc-24" value="Declined" style="text;strokeColor=none;fillColor=none;align=left;verticalAlign=middle;spacingLeft=4;spacingRight=4;overflow=hidden;points=[[0,0.5],[1,0.5]];portConstraint=eastwest;rotatable=0;whiteSpace=wrap;html=1;" parent="nIXqTLBLyyWKumG9TFtc-22" vertex="1"><mxGeometry y="60" width="140" height="30" as="geometry"/></mxCell><mxCell id="9" value="Unanswered" style="text;strokeColor=none;fillColor=none;align=left;verticalAlign=middle;spacingLeft=4;spacingRight=4;overflow=hidden;points=[[0,0.5],[1,0.5]];portConstraint=eastwest;rotatable=0;whiteSpace=wrap;html=1;" parent="nIXqTLBLyyWKumG9TFtc-22" vertex="1"><mxGeometry y="90" width="140" height="30" as="geometry"/></mxCell><mxCell id="nIXqTLBLyyWKumG9TFtc-26" value="" style="endArrow=classic;html=1;rounded=0;exitX=0.5;exitY=1;exitDx=0;exitDy=0;edgeStyle=orthogonalEdgeStyle;" parent="WIyWlLk6GJQsqaUBKTNV-1" source="_RrmoXPhH2mf_FNRbu7P-57" target="nIXqTLBLyyWKumG9TFtc-22" edge="1"><mxGeometry width="50" height="50" relative="1" as="geometry"><mxPoint x="490" y="490" as="sourcePoint"/><mxPoint x="540" y="440" as="targetPoint"/></mxGeometry></mxCell><mxCell id="nIXqTLBLyyWKumG9TFtc-29" value="" style="endArrow=classic;html=1;rounded=0;exitX=1.013;exitY=0.351;exitDx=0;exitDy=0;exitPerimeter=0;entryX=0;entryY=0.4;entryDx=0;entryDy=0;edgeStyle=orthogonalEdgeStyle;entryPerimeter=0;" parent="WIyWlLk6GJQsqaUBKTNV-1" source="_RrmoXPhH2mf_FNRbu7P-57" target="_RrmoXPhH2mf_FNRbu7P-56" edge="1"><mxGeometry width="50" height="50" relative="1" as="geometry"><mxPoint x="470" y="480" as="sourcePoint"/><mxPoint x="520" y="430" as="targetPoint"/><Array as="points"><mxPoint x="230" y="586"/><mxPoint x="230" y="550"/></Array></mxGeometry></mxCell><mxCell id="nIXqTLBLyyWKumG9TFtc-30" value="Which &amp;gt;" style="edgeLabel;html=1;align=center;verticalAlign=middle;resizable=0;points=[];" parent="nIXqTLBLyyWKumG9TFtc-29" vertex="1" connectable="0"><mxGeometry x="0.1433" y="2" relative="1" as="geometry"><mxPoint x="-20" y="-14" as="offset"/></mxGeometry></mxCell><mxCell id="nIXqTLBLyyWKumG9TFtc-35" value="" style="endArrow=classic;html=1;rounded=0;entryX=1.003;entryY=0.051;entryDx=0;entryDy=0;entryPerimeter=0;edgeStyle=orthogonalEdgeStyle;" parent="WIyWlLk6GJQsqaUBKTNV-1" source="_RrmoXPhH2mf_FNRbu7P-38" target="DEX5VwWHW_m0o6cI4k5w-30" edge="1"><mxGeometry width="50" height="50" relative="1" as="geometry"><mxPoint x="1170" y="380" as="sourcePoint"/><mxPoint x="1220" y="330" as="targetPoint"/></mxGeometry></mxCell><mxCell id="nIXqTLBLyyWKumG9TFtc-43" value="1" style="endArrow=open;html=1;endSize=12;startArrow=diamondThin;startSize=14;startFill=1;edgeStyle=orthogonalEdgeStyle;align=left;verticalAlign=bottom;rounded=0;exitX=0.641;exitY=1.007;exitDx=0;exitDy=0;exitPerimeter=0;entryX=0.389;entryY=-0.013;entryDx=0;entryDy=0;entryPerimeter=0;" parent="WIyWlLk6GJQsqaUBKTNV-1" source="nIXqTLBLyyWKumG9TFtc-36" target="zkfFHV4jXpPFQw0GAbJ--6" edge="1"><mxGeometry x="-0.6117" y="8" relative="1" as="geometry"><mxPoint x="310" y="260" as="sourcePoint"/><mxPoint x="470" y="260" as="targetPoint"/><mxPoint as="offset"/></mxGeometry></mxCell><mxCell id="nIXqTLBLyyWKumG9TFtc-44" value="1" style="endArrow=open;html=1;endSize=12;startArrow=diamondThin;startSize=14;startFill=1;edgeStyle=orthogonalEdgeStyle;align=left;verticalAlign=bottom;rounded=0;exitX=0;exitY=0.5;exitDx=0;exitDy=0;entryX=0;entryY=0.5;entryDx=0;entryDy=0;" parent="WIyWlLk6GJQsqaUBKTNV-1" source="nIXqTLBLyyWKumG9TFtc-36" target="_RrmoXPhH2mf_FNRbu7P-57" edge="1"><mxGeometry x="-0.8385" y="-11" relative="1" as="geometry"><mxPoint x="120" y="350" as="sourcePoint"/><mxPoint x="280" y="350" as="targetPoint"/><Array as="points"><mxPoint x="-90" y="211"/><mxPoint x="-90" y="593"/></Array><mxPoint as="offset"/></mxGeometry></mxCell><mxCell id="nIXqTLBLyyWKumG9TFtc-45" value="&amp;lt; approves" style="edgeLabel;html=1;align=center;verticalAlign=middle;resizable=0;points=[];" parent="nIXqTLBLyyWKumG9TFtc-44" vertex="1" connectable="0"><mxGeometry x="-0.5621" y="1" relative="1" as="geometry"><mxPoint x="14" y="-15" as="offset"/></mxGeometry></mxCell><mxCell id="nIXqTLBLyyWKumG9TFtc-46" value="isFor &amp;gt;" style="html=1;verticalAlign=bottom;endArrow=open;dashed=1;endSize=8;rounded=0;exitX=1.024;exitY=0.442;exitDx=0;exitDy=0;exitPerimeter=0;entryX=0.005;entryY=0.846;entryDx=0;entryDy=0;entryPerimeter=0;edgeStyle=orthogonalEdgeStyle;" parent="WIyWlLk6GJQsqaUBKTNV-1" source="zkfFHV4jXpPFQw0GAbJ--6" target="zkfFHV4jXpPFQw0GAbJ--25" edge="1"><mxGeometry x="0.2006" relative="1" as="geometry"><mxPoint x="490" y="300" as="sourcePoint"/><mxPoint x="410" y="300" as="targetPoint"/><mxPoint as="offset"/></mxGeometry></mxCell><mxCell id="nIXqTLBLyyWKumG9TFtc-47" value="creates&amp;gt;" style="html=1;verticalAlign=bottom;endArrow=open;dashed=1;endSize=8;rounded=0;entryX=0.006;entryY=0.182;entryDx=0;entryDy=0;entryPerimeter=0;exitX=0.999;exitY=0.779;exitDx=0;exitDy=0;exitPerimeter=0;edgeStyle=orthogonalEdgeStyle;" parent="WIyWlLk6GJQsqaUBKTNV-1" source="nIXqTLBLyyWKumG9TFtc-11" target="zkfFHV4jXpPFQw0GAbJ--22" edge="1"><mxGeometry relative="1" as="geometry"><mxPoint x="500" y="200" as="sourcePoint"/><mxPoint x="420" y="200" as="targetPoint"/></mxGeometry></mxCell><mxCell id="nIXqTLBLyyWKumG9TFtc-48" value="1" style="edgeLabel;html=1;align=center;verticalAlign=middle;resizable=0;points=[];" parent="nIXqTLBLyyWKumG9TFtc-47" vertex="1" connectable="0"><mxGeometry x="-0.4994" relative="1" as="geometry"><mxPoint x="-23" y="17" as="offset"/></mxGeometry></mxCell><mxCell id="nIXqTLBLyyWKumG9TFtc-49" value="*" style="edgeLabel;html=1;align=center;verticalAlign=middle;resizable=0;points=[];" parent="nIXqTLBLyyWKumG9TFtc-47" vertex="1" connectable="0"><mxGeometry x="0.6265" relative="1" as="geometry"><mxPoint x="5" y="20" as="offset"/></mxGeometry></mxCell><mxCell id="nIXqTLBLyyWKumG9TFtc-50" value="&amp;lt; reactsTo" style="html=1;verticalAlign=bottom;endArrow=open;dashed=1;endSize=8;rounded=0;exitX=-0.017;exitY=0.08;exitDx=0;exitDy=0;exitPerimeter=0;edgeStyle=orthogonalEdgeStyle;" parent="WIyWlLk6GJQsqaUBKTNV-1" source="zkfFHV4jXpPFQw0GAbJ--13" edge="1"><mxGeometry x="-0.7092" y="23" relative="1" as="geometry"><mxPoint x="490" y="580" as="sourcePoint"/><mxPoint x="310" y="440" as="targetPoint"/><Array as="points"><mxPoint x="310" y="657"/><mxPoint x="310" y="440"/></Array><mxPoint as="offset"/></mxGeometry></mxCell><mxCell id="nIXqTLBLyyWKumG9TFtc-51" value="*" style="text;html=1;align=center;verticalAlign=middle;resizable=0;points=[];autosize=1;strokeColor=none;fillColor=none;" parent="WIyWlLk6GJQsqaUBKTNV-1" vertex="1"><mxGeometry x="350" y="640" width="30" height="30" as="geometry"/></mxCell><mxCell id="nIXqTLBLyyWKumG9TFtc-52" value="1" style="text;html=1;align=center;verticalAlign=middle;resizable=0;points=[];autosize=1;strokeColor=none;fillColor=none;" parent="WIyWlLk6GJQsqaUBKTNV-1" vertex="1"><mxGeometry x="315" y="440" width="30" height="30" as="geometry"/></mxCell><mxCell id="nIXqTLBLyyWKumG9TFtc-54" value="happensAt &amp;gt;" style="html=1;verticalAlign=bottom;endArrow=open;dashed=1;endSize=8;rounded=0;exitX=0.996;exitY=-0.039;exitDx=0;exitDy=0;exitPerimeter=0;entryX=0.006;entryY=0.227;entryDx=0;entryDy=0;entryPerimeter=0;edgeStyle=orthogonalEdgeStyle;" parent="WIyWlLk6GJQsqaUBKTNV-1" source="_RrmoXPhH2mf_FNRbu7P-2" target="_RrmoXPhH2mf_FNRbu7P-39" edge="1"><mxGeometry relative="1" as="geometry"><mxPoint x="1030" y="440" as="sourcePoint"/><mxPoint x="950" y="440" as="targetPoint"/></mxGeometry></mxCell><mxCell id="nIXqTLBLyyWKumG9TFtc-56" value="1" style="text;html=1;align=center;verticalAlign=middle;resizable=0;points=[];autosize=1;strokeColor=none;fillColor=none;" parent="WIyWlLk6GJQsqaUBKTNV-1" vertex="1"><mxGeometry x="820" y="478" width="30" height="30" as="geometry"/></mxCell><mxCell id="nIXqTLBLyyWKumG9TFtc-57" value="1" style="text;html=1;align=center;verticalAlign=middle;resizable=0;points=[];autosize=1;strokeColor=none;fillColor=none;" parent="WIyWlLk6GJQsqaUBKTNV-1" vertex="1"><mxGeometry x="960" y="478" width="30" height="30" as="geometry"/></mxCell><mxCell id="26" value="List" style="swimlane;fontStyle=0;childLayout=stackLayout;horizontal=1;startSize=30;horizontalStack=0;resizeParent=1;resizeParentMax=0;resizeLast=0;collapsible=1;marginBottom=0;whiteSpace=wrap;html=1;" vertex="1" parent="WIyWlLk6GJQsqaUBKTNV-1"><mxGeometry x="240" y="840" width="140" height="60" as="geometry"/></mxCell><mxCell id="29" value="Item 3" style="text;strokeColor=none;fillColor=none;align=left;verticalAlign=middle;spacingLeft=4;spacingRight=4;overflow=hidden;points=[[0,0.5],[1,0.5]];portConstraint=eastwest;rotatable=0;whiteSpace=wrap;html=1;" vertex="1" parent="26"><mxGeometry y="30" width="140" height="30" as="geometry"/></mxCell></root></mxGraphModel></diagram></mxfile>